<svg id="Layer_1" data-name="Layer 1" xmlns="http://www.w3.org/2000/svg" viewBox="0 0 161.84 43.11"><defs><style>.cls-1,.cls-3{fill:#eaeaea;}.cls-1{stroke:#26a9e1;stroke-miterlimit:10;stroke-width:2px;}.cls-2{fill:#595a5a;}.cls-4{fill:#27aae1;}</style></defs><rect class="cls-1" x="1" y="1" width="159.84" height="41.11"/><rect class="cls-2" x="3.13" y="2.88" width="40.11" height="37.35"/><path class="cls-2" d="M86.53,27.81h5.16l7.83,21.73H94.83l-1.47-4.47H84.94l-1.43,4.47H78.8Zm2.59,4.35-3,9.25h6Z" transform="translate(-27.7 -16.99)"/><path class="cls-2" d="M106.84,49.54V27.81h4.47V45.53h10.6v4Z" transform="translate(-27.7 -16.99)"/><path class="cls-2" d="M129.58,49.54V27.81h4.47V49.54Z" transform="translate(-27.7 -16.99)"/><path class="cls-2" d="M143.78,49.54V27.81H154a7.94,7.94,0,0,1,5.08,1.41,5,5,0,0,1,1.75,4.09,5.39,5.39,0,0,1-.65,2.76,4.21,4.21,0,0,1-1.95,1.71,5.32,5.32,0,0,1,2.52,2,5.74,5.74,0,0,1,.83,3.18,6,6,0,0,1-2.07,4.89,8.86,8.86,0,0,1-5.85,1.73Zm4.28-13.32h5.1a4.09,4.09,0,0,0,2.42-.57,2.08,2.08,0,0,0,.77-1.79,2,2,0,0,0-.75-1.73,4.3,4.3,0,0,0-2.47-.54h-5.07Zm0,9.39h5.3a4.4,4.4,0,0,0,2.72-.67,2.58,2.58,0,0,0,.86-2.14,2.63,2.63,0,0,0-.84-2.19,4.49,4.49,0,0,0-2.78-.67h-5.26Z" transform="translate(-27.7 -16.99)"/><path class="cls-2" d="M170.27,49.54V27.81h4.47V49.54Z" transform="translate(-27.7 -16.99)"/><path class="cls-3" d="M38.11,24.32H48.18a19.83,19.83,0,0,1,8.59,1.77,13.69,13.69,0,0,1,0,24.92,19.83,19.83,0,0,1-8.59,1.76H38.11Z" transform="translate(-27.7 -16.99)"/><path class="cls-4" d="M48.79,29.3a12.78,12.78,0,0,1,5.57,1.15,8.87,8.87,0,0,1,3.77,3.24,8.74,8.74,0,0,1,1.34,4.86,8.76,8.76,0,0,1-1.34,4.86,8.85,8.85,0,0,1-3.77,3.23,12.78,12.78,0,0,1-5.57,1.15Z" transform="translate(-27.7 -16.99)"/><path class="cls-4" d="M41.83,32.63V29.3h3.65v3.33Zm0,15.16V34.15h3.65V47.79Z" transform="translate(-27.7 -16.99)"/></svg>